<?xml version="1.0" standalone="no"?>
<!DOCTYPE svg PUBLIC "-//W3C//DTD SVG 20010904//EN"
 "http://www.w3.org/TR/2001/REC-SVG-20010904/DTD/svg10.dtd">
<svg version="1.0" xmlns="http://www.w3.org/2000/svg"
 width="102.000000pt" height="103.000000pt" viewBox="0 0 102.000000 103.000000"
 preserveAspectRatio="xMidYMid meet">

<g transform="translate(0.000000,103.000000) scale(0.100000,-0.100000)"
fill="#000000" stroke="none">
<path d="M628 952 c-58 -34 -81 -63 -103 -130 -40 -121 31 -259 148 -287 l27
-7 0 76 0 76 -30 0 c-28 0 -30 2 -30 40 0 38 2 40 30 40 28 0 30 3 30 35 0 72
41 110 111 103 30 -3 34 -7 37 -35 3 -27 0 -33 -17 -33 -37 0 -51 -12 -51 -41
0 -26 4 -29 31 -29 29 0 30 -2 27 -37 -3 -33 -7 -38 -30 -41 -28 -3 -28 -4
-28 -79 l0 -75 28 7 c47 11 100 53 129 102 23 39 28 60 28 113 0 138 -92 230
-229 230 -48 0 -71 -6 -108 -28z"/>
<path d="M83 470 c-47 -19 -55 -48 -55 -210 0 -99 3 -155 11 -164 16 -19 43
-25 71 -14 22 8 23 11 9 21 -31 23 -39 56 -39 160 0 96 2 106 24 130 29 32 72
40 176 36 70 -4 83 -7 106 -31 24 -23 27 -36 31 -105 2 -43 6 -88 9 -101 4
-22 6 -22 22 -6 14 15 17 37 17 127 l0 109 -33 29 -32 29 -148 -1 c-81 0 -157
-4 -169 -9z"/>
<path d="M144 382 c-24 -15 -34 -54 -34 -124 0 -40 6 -84 13 -98 12 -23 18
-25 87 -26 84 -1 103 3 93 20 -4 7 -2 7 7 -1 10 -9 18 -9 34 -1 32 17 36 27
36 113 0 119 -6 125 -128 125 -53 0 -102 -4 -108 -8z m214 -29 c5 -17 -26 -29
-40 -15 -6 6 -7 15 -3 22 9 14 37 9 43 -7z m-48 -38 c35 -35 33 -88 -5 -124
-74 -70 -188 34 -129 117 33 47 90 50 134 7z"/>
<path d="M204 285 c-15 -23 -15 -27 0 -51 24 -36 76 -31 90 8 20 57 -57 93
-90 43z"/>
</g>
</svg>
